<svg xmlns="http://www.w3.org/2000/svg" xmlns:xlink="http://www.w3.org/1999/xlink" width="500" zoomAndPan="magnify" viewBox="0 0 375 74.999997" height="100" preserveAspectRatio="xMidYMid meet" version="1.0"><defs><g/><clipPath id="0fb16fd2d0"><path d="M 141.257812 7.910156 L 181 7.910156 L 181 46.160156 L 141.257812 46.160156 Z M 141.257812 7.910156 " clip-rule="nonzero"/></clipPath></defs><g fill="#000000" fill-opacity="1"><g transform="translate(13.002111, 46.03939)"><g><path d="M 25.25 -38.796875 L 25.25 -31.046875 L 11.65625 -31.046875 L 11.65625 -23.328125 L 24.21875 -23.328125 L 24.21875 -15.5625 L 11.65625 -15.5625 L 11.65625 0 L 2.828125 0 L 2.828125 -38.796875 Z M 25.25 -38.796875 "/></g></g></g><g fill="#000000" fill-opacity="1"><g transform="translate(39.655592, 46.03939)"><g><path d="M 22.53125 -38.796875 L 38.1875 0 L 28.6875 0 L 25.8125 -7.765625 L 11.046875 -7.765625 L 8.1875 0 L -1.3125 0 L 14.34375 -38.796875 Z M 22.8125 -15.515625 L 18.484375 -26.8125 L 18.390625 -26.8125 L 14.0625 -15.515625 Z M 22.8125 -15.515625 "/></g></g></g><g fill="#000000" fill-opacity="1"><g transform="translate(76.509787, 46.03939)"><g><path d="M 17.125 -39.5 C 19.21875 -39.5 21.269531 -39.191406 23.28125 -38.578125 C 25.289062 -37.972656 26.78125 -37.375 27.75 -36.78125 L 29.15625 -35.84375 L 25.578125 -28.78125 C 25.296875 -28.96875 24.90625 -29.207031 24.40625 -29.5 C 23.90625 -29.800781 22.960938 -30.203125 21.578125 -30.703125 C 20.203125 -31.210938 18.921875 -31.46875 17.734375 -31.46875 C 16.253906 -31.46875 15.113281 -31.148438 14.3125 -30.515625 C 13.519531 -29.890625 13.125 -29.046875 13.125 -27.984375 C 13.125 -27.453125 13.3125 -26.957031 13.6875 -26.5 C 14.0625 -26.039062 14.703125 -25.550781 15.609375 -25.03125 C 16.523438 -24.519531 17.328125 -24.109375 18.015625 -23.796875 C 18.703125 -23.484375 19.769531 -23.015625 21.21875 -22.390625 C 23.71875 -21.316406 25.851562 -19.863281 27.625 -18.03125 C 29.394531 -16.195312 30.28125 -14.125 30.28125 -11.8125 C 30.28125 -9.582031 29.878906 -7.632812 29.078125 -5.96875 C 28.285156 -4.3125 27.191406 -3.007812 25.796875 -2.0625 C 24.398438 -1.125 22.851562 -0.429688 21.15625 0.015625 C 19.46875 0.472656 17.632812 0.703125 15.65625 0.703125 C 13.96875 0.703125 12.304688 0.53125 10.671875 0.1875 C 9.046875 -0.15625 7.679688 -0.582031 6.578125 -1.09375 C 5.484375 -1.613281 4.492188 -2.125 3.609375 -2.625 C 2.734375 -3.132812 2.09375 -3.5625 1.6875 -3.90625 L 1.078125 -4.421875 L 5.5 -11.859375 C 5.875 -11.535156 6.390625 -11.128906 7.046875 -10.640625 C 7.710938 -10.160156 8.882812 -9.515625 10.5625 -8.703125 C 12.238281 -7.890625 13.71875 -7.484375 15 -7.484375 C 18.726562 -7.484375 20.59375 -8.75 20.59375 -11.28125 C 20.59375 -11.820312 20.457031 -12.316406 20.1875 -12.765625 C 19.925781 -13.222656 19.457031 -13.675781 18.78125 -14.125 C 18.113281 -14.582031 17.519531 -14.941406 17 -15.203125 C 16.476562 -15.472656 15.628906 -15.882812 14.453125 -16.4375 C 13.285156 -16.988281 12.421875 -17.40625 11.859375 -17.6875 C 9.503906 -18.84375 7.679688 -20.289062 6.390625 -22.03125 C 5.109375 -23.769531 4.46875 -25.644531 4.46875 -27.65625 C 4.46875 -31.132812 5.753906 -33.976562 8.328125 -36.1875 C 10.898438 -38.394531 13.832031 -39.5 17.125 -39.5 Z M 17.125 -39.5 "/></g></g></g><g fill="#000000" fill-opacity="1"><g transform="translate(108.09909, 46.03939)"><g><path d="M 0.375 -31.046875 L 0.375 -38.796875 L 27.65625 -38.796875 L 27.65625 -31.046875 L 18.4375 -31.046875 L 18.4375 0 L 9.59375 0 L 9.59375 -31.046875 Z M 0.375 -31.046875 "/></g></g></g><g fill="#000000" fill-opacity="1"><g transform="translate(136.12285, 46.03939)"><g/></g></g><g fill="#000000" fill-opacity="1"><g transform="translate(148.95601, 46.03939)"><g/></g></g><g fill="#000000" fill-opacity="1"><g transform="translate(161.78917, 46.03939)"><g/></g></g><g fill="#000000" fill-opacity="1"><g transform="translate(174.636551, 46.03939)"><g><path d="M 0.375 -31.046875 L 0.375 -38.796875 L 27.65625 -38.796875 L 27.65625 -31.046875 L 18.4375 -31.046875 L 18.4375 0 L 9.59375 0 L 9.59375 -31.046875 Z M 0.375 -31.046875 "/></g></g></g><g fill="#000000" fill-opacity="1"><g transform="translate(202.653251, 46.03939)"><g><path d="M 2.828125 -38.796875 L 16.703125 -38.796875 C 20.429688 -38.796875 23.46875 -37.800781 25.8125 -35.8125 C 28.164062 -33.820312 29.34375 -30.976562 29.34375 -27.28125 C 29.34375 -24.425781 28.628906 -22.035156 27.203125 -20.109375 C 25.773438 -18.179688 23.84375 -16.820312 21.40625 -16.03125 L 34.75 0 L 23.515625 0 L 11.65625 -15.328125 L 11.65625 0 L 2.828125 0 Z M 11.65625 -21.59375 L 12.703125 -21.59375 C 13.515625 -21.59375 14.203125 -21.609375 14.765625 -21.640625 C 15.328125 -21.671875 15.96875 -21.78125 16.6875 -21.96875 C 17.414062 -22.15625 18 -22.421875 18.4375 -22.765625 C 18.875 -23.109375 19.25 -23.609375 19.5625 -24.265625 C 19.875 -24.921875 20.03125 -25.71875 20.03125 -26.65625 C 20.03125 -27.601562 19.875 -28.40625 19.5625 -29.0625 C 19.25 -29.71875 18.875 -30.21875 18.4375 -30.5625 C 18 -30.914062 17.414062 -31.1875 16.6875 -31.375 C 15.96875 -31.5625 15.328125 -31.671875 14.765625 -31.703125 C 14.203125 -31.734375 13.515625 -31.75 12.703125 -31.75 L 11.65625 -31.75 Z M 11.65625 -21.59375 "/></g></g></g><g fill="#000000" fill-opacity="1"><g transform="translate(236.310904, 46.03939)"><g><path d="M 22.53125 -38.796875 L 38.1875 0 L 28.6875 0 L 25.8125 -7.765625 L 11.046875 -7.765625 L 8.1875 0 L -1.3125 0 L 14.34375 -38.796875 Z M 22.8125 -15.515625 L 18.484375 -26.8125 L 18.390625 -26.8125 L 14.0625 -15.515625 Z M 22.8125 -15.515625 "/></g></g></g><g fill="#000000" fill-opacity="1"><g transform="translate(273.165098, 46.03939)"><g><path d="M 23.46875 -8 C 24.8125 -8 26.117188 -8.203125 27.390625 -8.609375 C 28.660156 -9.015625 29.59375 -9.40625 30.1875 -9.78125 L 31.09375 -10.390625 L 34.84375 -2.875 C 34.71875 -2.78125 34.546875 -2.648438 34.328125 -2.484375 C 34.109375 -2.328125 33.597656 -2.035156 32.796875 -1.609375 C 32.003906 -1.191406 31.148438 -0.828125 30.234375 -0.515625 C 29.328125 -0.203125 28.132812 0.078125 26.65625 0.328125 C 25.1875 0.578125 23.671875 0.703125 22.109375 0.703125 C 18.503906 0.703125 15.082031 -0.179688 11.84375 -1.953125 C 8.613281 -3.722656 6.007812 -6.160156 4.03125 -9.265625 C 2.0625 -12.367188 1.078125 -15.722656 1.078125 -19.328125 C 1.078125 -22.054688 1.65625 -24.675781 2.8125 -27.1875 C 3.976562 -29.695312 5.523438 -31.84375 7.453125 -33.625 C 9.378906 -35.414062 11.628906 -36.84375 14.203125 -37.90625 C 16.773438 -38.96875 19.410156 -39.5 22.109375 -39.5 C 24.609375 -39.5 26.914062 -39.203125 29.03125 -38.609375 C 31.15625 -38.015625 32.65625 -37.421875 33.53125 -36.828125 L 34.84375 -35.9375 L 31.09375 -28.40625 C 30.875 -28.59375 30.539062 -28.816406 30.09375 -29.078125 C 29.65625 -29.347656 28.773438 -29.703125 27.453125 -30.140625 C 26.140625 -30.585938 24.8125 -30.8125 23.46875 -30.8125 C 21.332031 -30.8125 19.414062 -30.460938 17.71875 -29.765625 C 16.03125 -29.078125 14.691406 -28.164062 13.703125 -27.03125 C 12.722656 -25.90625 11.972656 -24.691406 11.453125 -23.390625 C 10.929688 -22.097656 10.671875 -20.773438 10.671875 -19.421875 C 10.671875 -16.472656 11.773438 -13.832031 13.984375 -11.5 C 16.203125 -9.164062 19.363281 -8 23.46875 -8 Z M 23.46875 -8 "/></g></g></g><g fill="#000000" fill-opacity="1"><g transform="translate(308.562047, 46.03939)"><g><path d="M 38.140625 0 L 25.96875 0 L 11.65625 -16.453125 L 11.65625 0 L 2.828125 0 L 2.828125 -38.796875 L 11.65625 -38.796875 L 11.65625 -22.953125 L 24.96875 -38.796875 L 35.703125 -38.796875 L 20.078125 -20.40625 Z M 38.140625 0 "/></g></g></g><g fill="#5271ff" fill-opacity="1"><g transform="translate(345.574071, 46.03939)"><g><path d="M 8.1875 -10.0625 C 9.6875 -10.0625 10.960938 -9.535156 12.015625 -8.484375 C 13.066406 -7.429688 13.59375 -6.15625 13.59375 -4.65625 C 13.59375 -3.1875 13.066406 -1.925781 12.015625 -0.875 C 10.960938 0.175781 9.6875 0.703125 8.1875 0.703125 C 6.707031 0.703125 5.441406 0.175781 4.390625 -0.875 C 3.347656 -1.925781 2.828125 -3.1875 2.828125 -4.65625 C 2.828125 -6.15625 3.347656 -7.429688 4.390625 -8.484375 C 5.441406 -9.535156 6.707031 -10.0625 8.1875 -10.0625 Z M 8.1875 -10.0625 "/></g></g></g><g clip-path="url(#0fb16fd2d0)"><path fill="#5271ff" d="M 180.828125 26.988281 C 180.828125 26.847656 180.773438 26.734375 180.65625 26.65625 L 154.261719 8.003906 C 154.128906 7.910156 153.988281 7.902344 153.84375 7.980469 C 153.691406 8.050781 153.617188 8.167969 153.621094 8.335938 L 153.621094 16.277344 L 141.90625 8.003906 C 141.769531 7.910156 141.628906 7.902344 141.480469 7.980469 C 141.335938 8.054688 141.265625 8.171875 141.265625 8.335938 L 141.265625 45.640625 C 141.269531 45.800781 141.34375 45.917969 141.480469 45.996094 C 141.542969 46.023438 141.605469 46.039062 141.675781 46.042969 C 141.761719 46.042969 141.835938 46.015625 141.90625 45.964844 L 153.621094 37.6875 L 153.621094 45.640625 C 153.621094 45.804688 153.695312 45.921875 153.84375 45.996094 C 153.902344 46.027344 153.964844 46.042969 154.03125 46.042969 C 154.113281 46.039062 154.191406 46.011719 154.261719 45.964844 L 180.65625 27.320312 C 180.769531 27.238281 180.828125 27.128906 180.828125 26.988281 Z M 154.4375 44.851562 L 154.4375 37.109375 L 168.300781 27.320312 C 168.414062 27.238281 168.46875 27.125 168.472656 26.988281 C 168.46875 26.847656 168.414062 26.738281 168.300781 26.65625 L 154.4375 16.855469 L 154.4375 9.121094 L 179.714844 26.988281 Z M 154.4375 44.851562 " fill-opacity="1" fill-rule="nonzero"/></g><g fill="#a6a6a6" fill-opacity="1"><g transform="translate(33.21827, 64.165299)"><g><path d="M 5.71875 -9.859375 L 9.703125 0 L 7.296875 0 L 6.5625 -1.96875 L 2.8125 -1.96875 L 2.078125 0 L -0.328125 0 L 3.640625 -9.859375 Z M 5.796875 -3.9375 L 4.703125 -6.8125 L 4.671875 -6.8125 L 3.578125 -3.9375 Z M 5.796875 -3.9375 "/></g></g></g><g fill="#a6a6a6" fill-opacity="1"><g transform="translate(50.671501, 64.165299)"><g><path d="M 5.96875 -2.03125 C 6.3125 -2.03125 6.644531 -2.082031 6.96875 -2.1875 C 7.289062 -2.289062 7.523438 -2.390625 7.671875 -2.484375 L 7.90625 -2.640625 L 8.859375 -0.734375 C 8.828125 -0.703125 8.78125 -0.664062 8.71875 -0.625 C 8.664062 -0.59375 8.535156 -0.519531 8.328125 -0.40625 C 8.128906 -0.300781 7.914062 -0.207031 7.6875 -0.125 C 7.457031 -0.0507812 7.15625 0.015625 6.78125 0.078125 C 6.40625 0.140625 6.019531 0.171875 5.625 0.171875 C 4.707031 0.171875 3.835938 -0.0507812 3.015625 -0.5 C 2.191406 -0.945312 1.53125 -1.5625 1.03125 -2.34375 C 0.53125 -3.132812 0.28125 -3.988281 0.28125 -4.90625 C 0.28125 -5.601562 0.425781 -6.269531 0.71875 -6.90625 C 1.007812 -7.539062 1.398438 -8.085938 1.890625 -8.546875 C 2.378906 -9.003906 2.953125 -9.367188 3.609375 -9.640625 C 4.265625 -9.910156 4.9375 -10.046875 5.625 -10.046875 C 6.257812 -10.046875 6.84375 -9.96875 7.375 -9.8125 C 7.914062 -9.664062 8.296875 -9.515625 8.515625 -9.359375 L 8.859375 -9.125 L 7.90625 -7.21875 C 7.84375 -7.269531 7.753906 -7.328125 7.640625 -7.390625 C 7.535156 -7.460938 7.316406 -7.550781 6.984375 -7.65625 C 6.648438 -7.769531 6.3125 -7.828125 5.96875 -7.828125 C 5.425781 -7.828125 4.9375 -7.738281 4.5 -7.5625 C 4.070312 -7.382812 3.734375 -7.148438 3.484375 -6.859375 C 3.234375 -6.578125 3.039062 -6.269531 2.90625 -5.9375 C 2.78125 -5.613281 2.71875 -5.28125 2.71875 -4.9375 C 2.71875 -4.1875 3 -3.515625 3.5625 -2.921875 C 4.125 -2.328125 4.925781 -2.03125 5.96875 -2.03125 Z M 5.96875 -2.03125 "/></g></g></g><g fill="#a6a6a6" fill-opacity="1"><g transform="translate(67.754551, 64.165299)"><g><path d="M 5.71875 -9.859375 L 9.703125 0 L 7.296875 0 L 6.5625 -1.96875 L 2.8125 -1.96875 L 2.078125 0 L -0.328125 0 L 3.640625 -9.859375 Z M 5.796875 -3.9375 L 4.703125 -6.8125 L 4.671875 -6.8125 L 3.578125 -3.9375 Z M 5.796875 -3.9375 "/></g></g></g><g fill="#a6a6a6" fill-opacity="1"><g transform="translate(85.207779, 64.165299)"><g><path d="M 0.71875 -9.859375 L 3.578125 -9.859375 C 4.941406 -9.859375 6.109375 -9.390625 7.078125 -8.453125 C 8.054688 -7.515625 8.546875 -6.34375 8.546875 -4.9375 C 8.546875 -3.519531 8.0625 -2.34375 7.09375 -1.40625 C 6.125 -0.46875 4.953125 0 3.578125 0 L 0.71875 0 Z M 2.96875 -2.015625 L 3.3125 -2.015625 C 4.132812 -2.015625 4.804688 -2.289062 5.328125 -2.84375 C 5.847656 -3.394531 6.113281 -4.085938 6.125 -4.921875 C 6.125 -5.765625 5.859375 -6.460938 5.328125 -7.015625 C 4.804688 -7.578125 4.132812 -7.859375 3.3125 -7.859375 L 2.96875 -7.859375 Z M 2.96875 -2.015625 "/></g></g></g><g fill="#a6a6a6" fill-opacity="1"><g transform="translate(102.111708, 64.165299)"><g><path d="M 6.359375 -9.859375 L 6.359375 -7.890625 L 2.96875 -7.890625 L 2.96875 -5.921875 L 6.21875 -5.921875 L 6.21875 -3.953125 L 2.96875 -3.953125 L 2.96875 -1.96875 L 6.359375 -1.96875 L 6.359375 0 L 0.71875 0 L 0.71875 -9.859375 Z M 6.359375 -9.859375 "/></g></g></g><g fill="#a6a6a6" fill-opacity="1"><g transform="translate(117.128907, 64.165299)"><g><path d="M 8.875 0 L 8.40625 -5.84375 L 8.34375 -5.84375 L 6.328125 -0.0625 L 4.984375 -0.0625 L 2.96875 -5.84375 L 2.90625 -5.84375 L 2.4375 0 L 0.1875 0 L 1.078125 -9.859375 L 3.46875 -9.859375 L 5.65625 -4.171875 L 7.84375 -9.859375 L 10.234375 -9.859375 L 11.109375 0 Z M 8.875 0 "/></g></g></g><g fill="#a6a6a6" fill-opacity="1"><g transform="translate(136.516651, 64.165299)"><g><path d="M 2.96875 -9.859375 L 2.96875 0 L 0.71875 0 L 0.71875 -9.859375 Z M 2.96875 -9.859375 "/></g></g></g><g fill="#a6a6a6" fill-opacity="1"><g transform="translate(148.2858, 64.165299)"><g><path d="M 5.96875 -2.03125 C 6.3125 -2.03125 6.644531 -2.082031 6.96875 -2.1875 C 7.289062 -2.289062 7.523438 -2.390625 7.671875 -2.484375 L 7.90625 -2.640625 L 8.859375 -0.734375 C 8.828125 -0.703125 8.78125 -0.664062 8.71875 -0.625 C 8.664062 -0.59375 8.535156 -0.519531 8.328125 -0.40625 C 8.128906 -0.300781 7.914062 -0.207031 7.6875 -0.125 C 7.457031 -0.0507812 7.15625 0.015625 6.78125 0.078125 C 6.40625 0.140625 6.019531 0.171875 5.625 0.171875 C 4.707031 0.171875 3.835938 -0.0507812 3.015625 -0.5 C 2.191406 -0.945312 1.53125 -1.5625 1.03125 -2.34375 C 0.53125 -3.132812 0.28125 -3.988281 0.28125 -4.90625 C 0.28125 -5.601562 0.425781 -6.269531 0.71875 -6.90625 C 1.007812 -7.539062 1.398438 -8.085938 1.890625 -8.546875 C 2.378906 -9.003906 2.953125 -9.367188 3.609375 -9.640625 C 4.265625 -9.910156 4.9375 -10.046875 5.625 -10.046875 C 6.257812 -10.046875 6.84375 -9.96875 7.375 -9.8125 C 7.914062 -9.664062 8.296875 -9.515625 8.515625 -9.359375 L 8.859375 -9.125 L 7.90625 -7.21875 C 7.84375 -7.269531 7.753906 -7.328125 7.640625 -7.390625 C 7.535156 -7.460938 7.316406 -7.550781 6.984375 -7.65625 C 6.648438 -7.769531 6.3125 -7.828125 5.96875 -7.828125 C 5.425781 -7.828125 4.9375 -7.738281 4.5 -7.5625 C 4.070312 -7.382812 3.734375 -7.148438 3.484375 -6.859375 C 3.234375 -6.578125 3.039062 -6.269531 2.90625 -5.9375 C 2.78125 -5.613281 2.71875 -5.28125 2.71875 -4.9375 C 2.71875 -4.1875 3 -3.515625 3.5625 -2.921875 C 4.125 -2.328125 4.925781 -2.03125 5.96875 -2.03125 Z M 5.96875 -2.03125 "/></g></g></g><g fill="#a6a6a6" fill-opacity="1"><g transform="translate(165.368852, 64.165299)"><g/></g></g><g fill="#a6a6a6" fill-opacity="1"><g transform="translate(176.720051, 64.165299)"><g><path d="M 5.96875 -2.03125 C 6.3125 -2.03125 6.644531 -2.082031 6.96875 -2.1875 C 7.289062 -2.289062 7.523438 -2.390625 7.671875 -2.484375 L 7.90625 -2.640625 L 8.859375 -0.734375 C 8.828125 -0.703125 8.78125 -0.664062 8.71875 -0.625 C 8.664062 -0.59375 8.535156 -0.519531 8.328125 -0.40625 C 8.128906 -0.300781 7.914062 -0.207031 7.6875 -0.125 C 7.457031 -0.0507812 7.15625 0.015625 6.78125 0.078125 C 6.40625 0.140625 6.019531 0.171875 5.625 0.171875 C 4.707031 0.171875 3.835938 -0.0507812 3.015625 -0.5 C 2.191406 -0.945312 1.53125 -1.5625 1.03125 -2.34375 C 0.53125 -3.132812 0.28125 -3.988281 0.28125 -4.90625 C 0.28125 -5.601562 0.425781 -6.269531 0.71875 -6.90625 C 1.007812 -7.539062 1.398438 -8.085938 1.890625 -8.546875 C 2.378906 -9.003906 2.953125 -9.367188 3.609375 -9.640625 C 4.265625 -9.910156 4.9375 -10.046875 5.625 -10.046875 C 6.257812 -10.046875 6.84375 -9.96875 7.375 -9.8125 C 7.914062 -9.664062 8.296875 -9.515625 8.515625 -9.359375 L 8.859375 -9.125 L 7.90625 -7.21875 C 7.84375 -7.269531 7.753906 -7.328125 7.640625 -7.390625 C 7.535156 -7.460938 7.316406 -7.550781 6.984375 -7.65625 C 6.648438 -7.769531 6.3125 -7.828125 5.96875 -7.828125 C 5.425781 -7.828125 4.9375 -7.738281 4.5 -7.5625 C 4.070312 -7.382812 3.734375 -7.148438 3.484375 -6.859375 C 3.234375 -6.578125 3.039062 -6.269531 2.90625 -5.9375 C 2.78125 -5.613281 2.71875 -5.28125 2.71875 -4.9375 C 2.71875 -4.1875 3 -3.515625 3.5625 -2.921875 C 4.125 -2.328125 4.925781 -2.03125 5.96875 -2.03125 Z M 5.96875 -2.03125 "/></g></g></g><g fill="#a6a6a6" fill-opacity="1"><g transform="translate(193.803104, 64.165299)"><g><path d="M 0.28125 -4.9375 C 0.28125 -6.363281 0.765625 -7.570312 1.734375 -8.5625 C 2.703125 -9.550781 3.875 -10.046875 5.25 -10.046875 C 6.625 -10.046875 7.789062 -9.550781 8.75 -8.5625 C 9.71875 -7.582031 10.203125 -6.375 10.203125 -4.9375 C 10.203125 -3.488281 9.726562 -2.273438 8.78125 -1.296875 C 7.832031 -0.316406 6.65625 0.171875 5.25 0.171875 C 3.800781 0.171875 2.609375 -0.3125 1.671875 -1.28125 C 0.742188 -2.257812 0.28125 -3.476562 0.28125 -4.9375 Z M 2.703125 -4.9375 C 2.703125 -4.414062 2.78125 -3.941406 2.9375 -3.515625 C 3.09375 -3.085938 3.367188 -2.726562 3.765625 -2.4375 C 4.171875 -2.144531 4.664062 -2 5.25 -2 C 6.082031 -2 6.710938 -2.285156 7.140625 -2.859375 C 7.566406 -3.429688 7.78125 -4.125 7.78125 -4.9375 C 7.78125 -5.738281 7.5625 -6.425781 7.125 -7 C 6.695312 -7.582031 6.070312 -7.875 5.25 -7.875 C 4.4375 -7.875 3.804688 -7.582031 3.359375 -7 C 2.921875 -6.425781 2.703125 -5.738281 2.703125 -4.9375 Z M 2.703125 -4.9375 "/></g></g></g><g fill="#a6a6a6" fill-opacity="1"><g transform="translate(212.366884, 64.165299)"><g><path d="M 8.296875 -9.859375 L 8.296875 -3.5 C 8.296875 -2.289062 7.96875 -1.375 7.3125 -0.75 C 6.65625 -0.132812 5.695312 0.171875 4.4375 0.171875 C 3.1875 0.171875 2.234375 -0.132812 1.578125 -0.75 C 0.921875 -1.375 0.59375 -2.289062 0.59375 -3.5 L 0.59375 -9.859375 L 2.84375 -9.859375 L 2.84375 -4.15625 C 2.84375 -3.363281 2.96875 -2.8125 3.21875 -2.5 C 3.46875 -2.1875 3.875 -2.03125 4.4375 -2.03125 C 5.007812 -2.03125 5.421875 -2.1875 5.671875 -2.5 C 5.921875 -2.8125 6.046875 -3.363281 6.046875 -4.15625 L 6.046875 -9.859375 Z M 8.296875 -9.859375 "/></g></g></g><g fill="#a6a6a6" fill-opacity="1"><g transform="translate(229.342453, 64.165299)"><g><path d="M 2.96875 -6.125 L 2.96875 0 L 0.71875 0 L 0.71875 -9.859375 L 2.96875 -9.859375 L 6.890625 -3.734375 L 6.90625 -3.734375 L 6.90625 -9.859375 L 9.15625 -9.859375 L 9.15625 0 L 6.90625 0 L 2.984375 -6.125 Z M 2.96875 -6.125 "/></g></g></g><g fill="#a6a6a6" fill-opacity="1"><g transform="translate(247.297224, 64.165299)"><g><path d="M 4.34375 -10.046875 C 4.882812 -10.046875 5.410156 -9.96875 5.921875 -9.8125 C 6.429688 -9.65625 6.804688 -9.5 7.046875 -9.34375 L 7.40625 -9.109375 L 6.5 -7.3125 C 6.425781 -7.363281 6.328125 -7.425781 6.203125 -7.5 C 6.078125 -7.570312 5.835938 -7.671875 5.484375 -7.796875 C 5.128906 -7.929688 4.800781 -8 4.5 -8 C 4.125 -8 3.832031 -7.914062 3.625 -7.75 C 3.425781 -7.59375 3.328125 -7.378906 3.328125 -7.109375 C 3.328125 -6.972656 3.375 -6.847656 3.46875 -6.734375 C 3.570312 -6.617188 3.738281 -6.492188 3.96875 -6.359375 C 4.195312 -6.234375 4.398438 -6.128906 4.578125 -6.046875 C 4.753906 -5.960938 5.023438 -5.84375 5.390625 -5.6875 C 6.023438 -5.414062 6.566406 -5.046875 7.015625 -4.578125 C 7.472656 -4.117188 7.703125 -3.59375 7.703125 -3 C 7.703125 -2.4375 7.597656 -1.941406 7.390625 -1.515625 C 7.191406 -1.097656 6.914062 -0.769531 6.5625 -0.53125 C 6.207031 -0.289062 5.8125 -0.113281 5.375 0 C 4.945312 0.113281 4.484375 0.171875 3.984375 0.171875 C 3.546875 0.171875 3.117188 0.128906 2.703125 0.046875 C 2.296875 -0.0351562 1.953125 -0.144531 1.671875 -0.28125 C 1.390625 -0.414062 1.132812 -0.546875 0.90625 -0.671875 C 0.6875 -0.796875 0.53125 -0.898438 0.4375 -0.984375 L 0.28125 -1.125 L 1.40625 -3.015625 C 1.5 -2.929688 1.628906 -2.828125 1.796875 -2.703125 C 1.960938 -2.578125 2.257812 -2.410156 2.6875 -2.203125 C 3.113281 -2.003906 3.488281 -1.90625 3.8125 -1.90625 C 4.757812 -1.90625 5.234375 -2.226562 5.234375 -2.875 C 5.234375 -3.007812 5.195312 -3.132812 5.125 -3.25 C 5.0625 -3.363281 4.941406 -3.476562 4.765625 -3.59375 C 4.597656 -3.707031 4.445312 -3.796875 4.3125 -3.859375 C 4.1875 -3.929688 3.972656 -4.035156 3.671875 -4.171875 C 3.378906 -4.316406 3.160156 -4.425781 3.015625 -4.5 C 2.410156 -4.789062 1.945312 -5.15625 1.625 -5.59375 C 1.300781 -6.039062 1.140625 -6.519531 1.140625 -7.03125 C 1.140625 -7.914062 1.460938 -8.640625 2.109375 -9.203125 C 2.765625 -9.765625 3.507812 -10.046875 4.34375 -10.046875 Z M 4.34375 -10.046875 "/></g></g></g><g fill="#a6a6a6" fill-opacity="1"><g transform="translate(263.413022, 64.165299)"><g><path d="M 6.359375 -9.859375 L 6.359375 -7.890625 L 2.96875 -7.890625 L 2.96875 -5.921875 L 6.21875 -5.921875 L 6.21875 -3.953125 L 2.96875 -3.953125 L 2.96875 -1.96875 L 6.359375 -1.96875 L 6.359375 0 L 0.71875 0 L 0.71875 -9.859375 Z M 6.359375 -9.859375 "/></g></g></g><g fill="#a6a6a6" fill-opacity="1"><g transform="translate(278.43021, 64.165299)"><g><path d="M 2.96875 -9.859375 L 2.96875 -1.96875 L 6.359375 -1.96875 L 6.359375 0 L 0.71875 0 L 0.71875 -9.859375 Z M 2.96875 -9.859375 "/></g></g></g><g fill="#a6a6a6" fill-opacity="1"><g transform="translate(293.268275, 64.165299)"><g><path d="M 2.96875 -9.859375 L 2.96875 0 L 0.71875 0 L 0.71875 -9.859375 Z M 2.96875 -9.859375 "/></g></g></g><g fill="#a6a6a6" fill-opacity="1"><g transform="translate(305.037424, 64.165299)"><g><path d="M 2.96875 -6.125 L 2.96875 0 L 0.71875 0 L 0.71875 -9.859375 L 2.96875 -9.859375 L 6.890625 -3.734375 L 6.90625 -3.734375 L 6.90625 -9.859375 L 9.15625 -9.859375 L 9.15625 0 L 6.90625 0 L 2.984375 -6.125 Z M 2.96875 -6.125 "/></g></g></g><g fill="#a6a6a6" fill-opacity="1"><g transform="translate(322.992195, 64.165299)"><g><path d="M 9.640625 -5.515625 L 9.640625 -3.375 C 9.378906 -2.207031 8.816406 -1.320312 7.953125 -0.71875 C 7.097656 -0.125 6.140625 0.171875 5.078125 0.171875 C 3.742188 0.171875 2.609375 -0.320312 1.671875 -1.3125 C 0.742188 -2.3125 0.28125 -3.515625 0.28125 -4.921875 C 0.28125 -6.359375 0.738281 -7.570312 1.65625 -8.5625 C 2.570312 -9.550781 3.710938 -10.046875 5.078125 -10.046875 C 6.679688 -10.046875 7.945312 -9.484375 8.875 -8.359375 L 7.40625 -6.734375 C 6.882812 -7.585938 6.15625 -8.015625 5.21875 -8.015625 C 4.519531 -8.015625 3.925781 -7.710938 3.4375 -7.109375 C 2.945312 -6.503906 2.703125 -5.773438 2.703125 -4.921875 C 2.703125 -4.085938 2.945312 -3.375 3.4375 -2.78125 C 3.925781 -2.1875 4.519531 -1.890625 5.21875 -1.890625 C 5.789062 -1.890625 6.285156 -2.0625 6.703125 -2.40625 C 7.128906 -2.75 7.34375 -3.210938 7.34375 -3.796875 L 5.078125 -3.796875 L 5.078125 -5.515625 Z M 9.640625 -5.515625 "/></g></g></g></svg>