<svg xmlns="http://www.w3.org/2000/svg" xmlns:xlink="http://www.w3.org/1999/xlink" width="500" zoomAndPan="magnify" viewBox="0 0 375 74.999997" height="100" preserveAspectRatio="xMidYMid meet" version="1.0"><defs><g/><clipPath id="b5660f96ca"><path d="M 141.257812 7.910156 L 181 7.910156 L 181 46.160156 L 141.257812 46.160156 Z M 141.257812 7.910156 " clip-rule="nonzero"/></clipPath></defs><g fill="#000000" fill-opacity="1"><g transform="translate(13.002111, 46.03939)"><g><path d="M 25.25 -38.796875 L 25.25 -31.046875 L 11.65625 -31.046875 L 11.65625 -23.328125 L 24.21875 -23.328125 L 24.21875 -15.5625 L 11.65625 -15.5625 L 11.65625 0 L 2.828125 0 L 2.828125 -38.796875 Z M 25.25 -38.796875 "/></g></g></g><g fill="#000000" fill-opacity="1"><g transform="translate(39.655592, 46.03939)"><g><path d="M 22.53125 -38.796875 L 38.1875 0 L 28.6875 0 L 25.8125 -7.765625 L 11.046875 -7.765625 L 8.1875 0 L -1.3125 0 L 14.34375 -38.796875 Z M 22.8125 -15.515625 L 18.484375 -26.8125 L 18.390625 -26.8125 L 14.0625 -15.515625 Z M 22.8125 -15.515625 "/></g></g></g><g fill="#000000" fill-opacity="1"><g transform="translate(76.509787, 46.03939)"><g><path d="M 17.125 -39.5 C 19.21875 -39.5 21.269531 -39.191406 23.28125 -38.578125 C 25.289062 -37.972656 26.78125 -37.375 27.75 -36.78125 L 29.15625 -35.84375 L 25.578125 -28.78125 C 25.296875 -28.96875 24.90625 -29.207031 24.40625 -29.5 C 23.90625 -29.800781 22.960938 -30.203125 21.578125 -30.703125 C 20.203125 -31.210938 18.921875 -31.46875 17.734375 -31.46875 C 16.253906 -31.46875 15.113281 -31.148438 14.3125 -30.515625 C 13.519531 -29.890625 13.125 -29.046875 13.125 -27.984375 C 13.125 -27.453125 13.3125 -26.957031 13.6875 -26.5 C 14.0625 -26.039062 14.703125 -25.550781 15.609375 -25.03125 C 16.523438 -24.519531 17.328125 -24.109375 18.015625 -23.796875 C 18.703125 -23.484375 19.769531 -23.015625 21.21875 -22.390625 C 23.71875 -21.316406 25.851562 -19.863281 27.625 -18.03125 C 29.394531 -16.195312 30.28125 -14.125 30.28125 -11.8125 C 30.28125 -9.582031 29.878906 -7.632812 29.078125 -5.96875 C 28.285156 -4.3125 27.191406 -3.007812 25.796875 -2.0625 C 24.398438 -1.125 22.851562 -0.429688 21.15625 0.015625 C 19.46875 0.472656 17.632812 0.703125 15.65625 0.703125 C 13.96875 0.703125 12.304688 0.53125 10.671875 0.1875 C 9.046875 -0.15625 7.679688 -0.582031 6.578125 -1.09375 C 5.484375 -1.613281 4.492188 -2.125 3.609375 -2.625 C 2.734375 -3.132812 2.09375 -3.5625 1.6875 -3.90625 L 1.078125 -4.421875 L 5.5 -11.859375 C 5.875 -11.535156 6.390625 -11.128906 7.046875 -10.640625 C 7.710938 -10.160156 8.882812 -9.515625 10.5625 -8.703125 C 12.238281 -7.890625 13.71875 -7.484375 15 -7.484375 C 18.726562 -7.484375 20.59375 -8.75 20.59375 -11.28125 C 20.59375 -11.820312 20.457031 -12.316406 20.1875 -12.765625 C 19.925781 -13.222656 19.457031 -13.675781 18.78125 -14.125 C 18.113281 -14.582031 17.519531 -14.941406 17 -15.203125 C 16.476562 -15.472656 15.628906 -15.882812 14.453125 -16.4375 C 13.285156 -16.988281 12.421875 -17.40625 11.859375 -17.6875 C 9.503906 -18.84375 7.679688 -20.289062 6.390625 -22.03125 C 5.109375 -23.769531 4.46875 -25.644531 4.46875 -27.65625 C 4.46875 -31.132812 5.753906 -33.976562 8.328125 -36.1875 C 10.898438 -38.394531 13.832031 -39.5 17.125 -39.5 Z M 17.125 -39.5 "/></g></g></g><g fill="#000000" fill-opacity="1"><g transform="translate(108.09909, 46.03939)"><g><path d="M 0.375 -31.046875 L 0.375 -38.796875 L 27.65625 -38.796875 L 27.65625 -31.046875 L 18.4375 -31.046875 L 18.4375 0 L 9.59375 0 L 9.59375 -31.046875 Z M 0.375 -31.046875 "/></g></g></g><g fill="#000000" fill-opacity="1"><g transform="translate(136.12285, 46.03939)"><g/></g></g><g fill="#000000" fill-opacity="1"><g transform="translate(148.95601, 46.03939)"><g/></g></g><g fill="#000000" fill-opacity="1"><g transform="translate(161.78917, 46.03939)"><g/></g></g><g fill="#000000" fill-opacity="1"><g transform="translate(174.636551, 46.03939)"><g><path d="M 0.375 -31.046875 L 0.375 -38.796875 L 27.65625 -38.796875 L 27.65625 -31.046875 L 18.4375 -31.046875 L 18.4375 0 L 9.59375 0 L 9.59375 -31.046875 Z M 0.375 -31.046875 "/></g></g></g><g fill="#000000" fill-opacity="1"><g transform="translate(202.653251, 46.03939)"><g><path d="M 2.828125 -38.796875 L 16.703125 -38.796875 C 20.429688 -38.796875 23.46875 -37.800781 25.8125 -35.8125 C 28.164062 -33.820312 29.34375 -30.976562 29.34375 -27.28125 C 29.34375 -24.425781 28.628906 -22.035156 27.203125 -20.109375 C 25.773438 -18.179688 23.84375 -16.820312 21.40625 -16.03125 L 34.75 0 L 23.515625 0 L 11.65625 -15.328125 L 11.65625 0 L 2.828125 0 Z M 11.65625 -21.59375 L 12.703125 -21.59375 C 13.515625 -21.59375 14.203125 -21.609375 14.765625 -21.640625 C 15.328125 -21.671875 15.96875 -21.78125 16.6875 -21.96875 C 17.414062 -22.15625 18 -22.421875 18.4375 -22.765625 C 18.875 -23.109375 19.25 -23.609375 19.5625 -24.265625 C 19.875 -24.921875 20.03125 -25.71875 20.03125 -26.65625 C 20.03125 -27.601562 19.875 -28.40625 19.5625 -29.0625 C 19.25 -29.71875 18.875 -30.21875 18.4375 -30.5625 C 18 -30.914062 17.414062 -31.1875 16.6875 -31.375 C 15.96875 -31.5625 15.328125 -31.671875 14.765625 -31.703125 C 14.203125 -31.734375 13.515625 -31.75 12.703125 -31.75 L 11.65625 -31.75 Z M 11.65625 -21.59375 "/></g></g></g><g fill="#000000" fill-opacity="1"><g transform="translate(236.310904, 46.03939)"><g><path d="M 22.53125 -38.796875 L 38.1875 0 L 28.6875 0 L 25.8125 -7.765625 L 11.046875 -7.765625 L 8.1875 0 L -1.3125 0 L 14.34375 -38.796875 Z M 22.8125 -15.515625 L 18.484375 -26.8125 L 18.390625 -26.8125 L 14.0625 -15.515625 Z M 22.8125 -15.515625 "/></g></g></g><g fill="#000000" fill-opacity="1"><g transform="translate(273.165098, 46.03939)"><g><path d="M 23.46875 -8 C 24.8125 -8 26.117188 -8.203125 27.390625 -8.609375 C 28.660156 -9.015625 29.59375 -9.40625 30.1875 -9.78125 L 31.09375 -10.390625 L 34.84375 -2.875 C 34.71875 -2.78125 34.546875 -2.648438 34.328125 -2.484375 C 34.109375 -2.328125 33.597656 -2.035156 32.796875 -1.609375 C 32.003906 -1.191406 31.148438 -0.828125 30.234375 -0.515625 C 29.328125 -0.203125 28.132812 0.078125 26.65625 0.328125 C 25.1875 0.578125 23.671875 0.703125 22.109375 0.703125 C 18.503906 0.703125 15.082031 -0.179688 11.84375 -1.953125 C 8.613281 -3.722656 6.007812 -6.160156 4.03125 -9.265625 C 2.0625 -12.367188 1.078125 -15.722656 1.078125 -19.328125 C 1.078125 -22.054688 1.65625 -24.675781 2.8125 -27.1875 C 3.976562 -29.695312 5.523438 -31.84375 7.453125 -33.625 C 9.378906 -35.414062 11.628906 -36.84375 14.203125 -37.90625 C 16.773438 -38.96875 19.410156 -39.5 22.109375 -39.5 C 24.609375 -39.5 26.914062 -39.203125 29.03125 -38.609375 C 31.15625 -38.015625 32.65625 -37.421875 33.53125 -36.828125 L 34.84375 -35.9375 L 31.09375 -28.40625 C 30.875 -28.59375 30.539062 -28.816406 30.09375 -29.078125 C 29.65625 -29.347656 28.773438 -29.703125 27.453125 -30.140625 C 26.140625 -30.585938 24.8125 -30.8125 23.46875 -30.8125 C 21.332031 -30.8125 19.414062 -30.460938 17.71875 -29.765625 C 16.03125 -29.078125 14.691406 -28.164062 13.703125 -27.03125 C 12.722656 -25.90625 11.972656 -24.691406 11.453125 -23.390625 C 10.929688 -22.097656 10.671875 -20.773438 10.671875 -19.421875 C 10.671875 -16.472656 11.773438 -13.832031 13.984375 -11.5 C 16.203125 -9.164062 19.363281 -8 23.46875 -8 Z M 23.46875 -8 "/></g></g></g><g fill="#000000" fill-opacity="1"><g transform="translate(308.562047, 46.03939)"><g><path d="M 38.140625 0 L 25.96875 0 L 11.65625 -16.453125 L 11.65625 0 L 2.828125 0 L 2.828125 -38.796875 L 11.65625 -38.796875 L 11.65625 -22.953125 L 24.96875 -38.796875 L 35.703125 -38.796875 L 20.078125 -20.40625 Z M 38.140625 0 "/></g></g></g><g fill="#5271ff" fill-opacity="1"><g transform="translate(345.574071, 46.03939)"><g><path d="M 8.1875 -10.0625 C 9.6875 -10.0625 10.960938 -9.535156 12.015625 -8.484375 C 13.066406 -7.429688 13.59375 -6.15625 13.59375 -4.65625 C 13.59375 -3.1875 13.066406 -1.925781 12.015625 -0.875 C 10.960938 0.175781 9.6875 0.703125 8.1875 0.703125 C 6.707031 0.703125 5.441406 0.175781 4.390625 -0.875 C 3.347656 -1.925781 2.828125 -3.1875 2.828125 -4.65625 C 2.828125 -6.15625 3.347656 -7.429688 4.390625 -8.484375 C 5.441406 -9.535156 6.707031 -10.0625 8.1875 -10.0625 Z M 8.1875 -10.0625 "/></g></g></g><g clip-path="url(#b5660f96ca)"><path fill="#5271ff" d="M 180.828125 26.988281 C 180.828125 26.847656 180.773438 26.734375 180.65625 26.65625 L 154.261719 8.003906 C 154.128906 7.910156 153.988281 7.902344 153.84375 7.980469 C 153.691406 8.050781 153.617188 8.167969 153.621094 8.335938 L 153.621094 16.277344 L 141.90625 8.003906 C 141.769531 7.910156 141.628906 7.902344 141.480469 7.980469 C 141.335938 8.054688 141.265625 8.171875 141.265625 8.335938 L 141.265625 45.640625 C 141.269531 45.800781 141.34375 45.917969 141.480469 45.996094 C 141.542969 46.023438 141.605469 46.039062 141.675781 46.042969 C 141.761719 46.042969 141.835938 46.015625 141.90625 45.964844 L 153.621094 37.6875 L 153.621094 45.640625 C 153.621094 45.804688 153.695312 45.921875 153.84375 45.996094 C 153.902344 46.027344 153.964844 46.042969 154.03125 46.042969 C 154.113281 46.039062 154.191406 46.011719 154.261719 45.964844 L 180.65625 27.320312 C 180.769531 27.238281 180.828125 27.128906 180.828125 26.988281 Z M 154.4375 44.851562 L 154.4375 37.109375 L 168.300781 27.320312 C 168.414062 27.238281 168.46875 27.125 168.472656 26.988281 C 168.46875 26.847656 168.414062 26.738281 168.300781 26.65625 L 154.4375 16.855469 L 154.4375 9.121094 L 179.714844 26.988281 Z M 154.4375 44.851562 " fill-opacity="1" fill-rule="nonzero"/></g><g fill="#a6a6a6" fill-opacity="1"><g transform="translate(27.92522, 64.184405)"><g><path d="M 6.203125 -10.6875 L 10.515625 0 L 7.90625 0 L 7.109375 -2.140625 L 3.046875 -2.140625 L 2.25 0 L -0.359375 0 L 3.953125 -10.6875 Z M 6.28125 -4.28125 L 5.09375 -7.390625 L 5.0625 -7.390625 L 3.875 -4.28125 Z M 6.28125 -4.28125 "/></g></g></g><g fill="#a6a6a6" fill-opacity="1"><g transform="translate(46.842386, 64.184405)"><g><path d="M 6.46875 -2.203125 C 6.832031 -2.203125 7.1875 -2.253906 7.53125 -2.359375 C 7.882812 -2.472656 8.144531 -2.582031 8.3125 -2.6875 L 8.5625 -2.859375 L 9.59375 -0.796875 C 9.5625 -0.765625 9.515625 -0.726562 9.453125 -0.6875 C 9.390625 -0.644531 9.25 -0.5625 9.03125 -0.4375 C 8.8125 -0.320312 8.578125 -0.222656 8.328125 -0.140625 C 8.078125 -0.0546875 7.75 0.015625 7.34375 0.078125 C 6.9375 0.148438 6.519531 0.1875 6.09375 0.1875 C 5.09375 0.1875 4.148438 -0.0507812 3.265625 -0.53125 C 2.378906 -1.019531 1.660156 -1.691406 1.109375 -2.546875 C 0.566406 -3.398438 0.296875 -4.328125 0.296875 -5.328125 C 0.296875 -6.078125 0.453125 -6.796875 0.765625 -7.484375 C 1.085938 -8.171875 1.515625 -8.757812 2.046875 -9.25 C 2.578125 -9.75 3.195312 -10.144531 3.90625 -10.4375 C 4.613281 -10.726562 5.34375 -10.875 6.09375 -10.875 C 6.78125 -10.875 7.414062 -10.789062 8 -10.625 C 8.582031 -10.46875 8.992188 -10.304688 9.234375 -10.140625 L 9.59375 -9.890625 L 8.5625 -7.828125 C 8.5 -7.878906 8.40625 -7.941406 8.28125 -8.015625 C 8.164062 -8.085938 7.925781 -8.179688 7.5625 -8.296875 C 7.195312 -8.421875 6.832031 -8.484375 6.46875 -8.484375 C 5.875 -8.484375 5.34375 -8.390625 4.875 -8.203125 C 4.414062 -8.015625 4.050781 -7.765625 3.78125 -7.453125 C 3.507812 -7.140625 3.300781 -6.800781 3.15625 -6.4375 C 3.007812 -6.082031 2.9375 -5.71875 2.9375 -5.34375 C 2.9375 -4.53125 3.238281 -3.800781 3.84375 -3.15625 C 4.457031 -2.519531 5.332031 -2.203125 6.46875 -2.203125 Z M 6.46875 -2.203125 "/></g></g></g><g fill="#a6a6a6" fill-opacity="1"><g transform="translate(65.35826, 64.184405)"><g><path d="M 6.203125 -10.6875 L 10.515625 0 L 7.90625 0 L 7.109375 -2.140625 L 3.046875 -2.140625 L 2.25 0 L -0.359375 0 L 3.953125 -10.6875 Z M 6.28125 -4.28125 L 5.09375 -7.390625 L 5.0625 -7.390625 L 3.875 -4.28125 Z M 6.28125 -4.28125 "/></g></g></g><g fill="#a6a6a6" fill-opacity="1"><g transform="translate(84.275426, 64.184405)"><g><path d="M 0.78125 -10.6875 L 3.875 -10.6875 C 5.351562 -10.6875 6.617188 -10.175781 7.671875 -9.15625 C 8.734375 -8.144531 9.265625 -6.875 9.265625 -5.34375 C 9.265625 -3.8125 8.738281 -2.535156 7.6875 -1.515625 C 6.632812 -0.503906 5.363281 0 3.875 0 L 0.78125 0 Z M 3.21875 -2.171875 L 3.59375 -2.171875 C 4.476562 -2.171875 5.203125 -2.472656 5.765625 -3.078125 C 6.335938 -3.679688 6.625 -4.4375 6.625 -5.34375 C 6.625 -6.25 6.34375 -7.003906 5.78125 -7.609375 C 5.21875 -8.210938 4.488281 -8.515625 3.59375 -8.515625 L 3.21875 -8.515625 Z M 3.21875 -2.171875 "/></g></g></g><g fill="#a6a6a6" fill-opacity="1"><g transform="translate(102.597115, 64.184405)"><g><path d="M 6.890625 -10.6875 L 6.890625 -8.546875 L 3.21875 -8.546875 L 3.21875 -6.421875 L 6.734375 -6.421875 L 6.734375 -4.28125 L 3.21875 -4.28125 L 3.21875 -2.140625 L 6.890625 -2.140625 L 6.890625 0 L 0.78125 0 L 0.78125 -10.6875 Z M 6.890625 -10.6875 "/></g></g></g><g fill="#a6a6a6" fill-opacity="1"><g transform="translate(118.873472, 64.184405)"><g><path d="M 9.609375 0 L 9.109375 -6.328125 L 9.046875 -6.328125 L 6.859375 -0.0625 L 5.40625 -0.0625 L 3.21875 -6.328125 L 3.140625 -6.328125 L 2.640625 0 L 0.203125 0 L 1.171875 -10.6875 L 3.75 -10.6875 L 6.125 -4.515625 L 8.5 -10.6875 L 11.09375 -10.6875 L 12.046875 0 Z M 9.609375 0 "/></g></g></g><g fill="#a6a6a6" fill-opacity="1"><g transform="translate(139.887748, 64.184405)"><g><path d="M 3.21875 -10.6875 L 3.21875 0 L 0.78125 0 L 0.78125 -10.6875 Z M 3.21875 -10.6875 "/></g></g></g><g fill="#a6a6a6" fill-opacity="1"><g transform="translate(152.64303, 64.184405)"><g><path d="M 6.46875 -2.203125 C 6.832031 -2.203125 7.1875 -2.253906 7.53125 -2.359375 C 7.882812 -2.472656 8.144531 -2.582031 8.3125 -2.6875 L 8.5625 -2.859375 L 9.59375 -0.796875 C 9.5625 -0.765625 9.515625 -0.726562 9.453125 -0.6875 C 9.390625 -0.644531 9.25 -0.5625 9.03125 -0.4375 C 8.8125 -0.320312 8.578125 -0.222656 8.328125 -0.140625 C 8.078125 -0.0546875 7.75 0.015625 7.34375 0.078125 C 6.9375 0.148438 6.519531 0.1875 6.09375 0.1875 C 5.09375 0.1875 4.148438 -0.0507812 3.265625 -0.53125 C 2.378906 -1.019531 1.660156 -1.691406 1.109375 -2.546875 C 0.566406 -3.398438 0.296875 -4.328125 0.296875 -5.328125 C 0.296875 -6.078125 0.453125 -6.796875 0.765625 -7.484375 C 1.085938 -8.171875 1.515625 -8.757812 2.046875 -9.25 C 2.578125 -9.75 3.195312 -10.144531 3.90625 -10.4375 C 4.613281 -10.726562 5.34375 -10.875 6.09375 -10.875 C 6.78125 -10.875 7.414062 -10.789062 8 -10.625 C 8.582031 -10.46875 8.992188 -10.304688 9.234375 -10.140625 L 9.59375 -9.890625 L 8.5625 -7.828125 C 8.5 -7.878906 8.40625 -7.941406 8.28125 -8.015625 C 8.164062 -8.085938 7.925781 -8.179688 7.5625 -8.296875 C 7.195312 -8.421875 6.832031 -8.484375 6.46875 -8.484375 C 5.875 -8.484375 5.34375 -8.390625 4.875 -8.203125 C 4.414062 -8.015625 4.050781 -7.765625 3.78125 -7.453125 C 3.507812 -7.140625 3.300781 -6.800781 3.15625 -6.4375 C 3.007812 -6.082031 2.9375 -5.71875 2.9375 -5.34375 C 2.9375 -4.53125 3.238281 -3.800781 3.84375 -3.15625 C 4.457031 -2.519531 5.332031 -2.203125 6.46875 -2.203125 Z M 6.46875 -2.203125 "/></g></g></g><g fill="#a6a6a6" fill-opacity="1"><g transform="translate(171.158903, 64.184405)"><g/></g></g><g fill="#a6a6a6" fill-opacity="1"><g transform="translate(183.461114, 64.184405)"><g><path d="M 6.46875 -2.203125 C 6.832031 -2.203125 7.1875 -2.253906 7.53125 -2.359375 C 7.882812 -2.472656 8.144531 -2.582031 8.3125 -2.6875 L 8.5625 -2.859375 L 9.59375 -0.796875 C 9.5625 -0.765625 9.515625 -0.726562 9.453125 -0.6875 C 9.390625 -0.644531 9.25 -0.5625 9.03125 -0.4375 C 8.8125 -0.320312 8.578125 -0.222656 8.328125 -0.140625 C 8.078125 -0.0546875 7.75 0.015625 7.34375 0.078125 C 6.9375 0.148438 6.519531 0.1875 6.09375 0.1875 C 5.09375 0.1875 4.148438 -0.0507812 3.265625 -0.53125 C 2.378906 -1.019531 1.660156 -1.691406 1.109375 -2.546875 C 0.566406 -3.398438 0.296875 -4.328125 0.296875 -5.328125 C 0.296875 -6.078125 0.453125 -6.796875 0.765625 -7.484375 C 1.085938 -8.171875 1.515625 -8.757812 2.046875 -9.25 C 2.578125 -9.75 3.195312 -10.144531 3.90625 -10.4375 C 4.613281 -10.726562 5.34375 -10.875 6.09375 -10.875 C 6.78125 -10.875 7.414062 -10.789062 8 -10.625 C 8.582031 -10.46875 8.992188 -10.304688 9.234375 -10.140625 L 9.59375 -9.890625 L 8.5625 -7.828125 C 8.5 -7.878906 8.40625 -7.941406 8.28125 -8.015625 C 8.164062 -8.085938 7.925781 -8.179688 7.5625 -8.296875 C 7.195312 -8.421875 6.832031 -8.484375 6.46875 -8.484375 C 5.875 -8.484375 5.34375 -8.390625 4.875 -8.203125 C 4.414062 -8.015625 4.050781 -7.765625 3.78125 -7.453125 C 3.507812 -7.140625 3.300781 -6.800781 3.15625 -6.4375 C 3.007812 -6.082031 2.9375 -5.71875 2.9375 -5.34375 C 2.9375 -4.53125 3.238281 -3.800781 3.84375 -3.15625 C 4.457031 -2.519531 5.332031 -2.203125 6.46875 -2.203125 Z M 6.46875 -2.203125 "/></g></g></g><g fill="#a6a6a6" fill-opacity="1"><g transform="translate(201.976987, 64.184405)"><g><path d="M 0.296875 -5.34375 C 0.296875 -6.894531 0.820312 -8.203125 1.875 -9.265625 C 2.925781 -10.335938 4.195312 -10.875 5.6875 -10.875 C 7.175781 -10.875 8.441406 -10.34375 9.484375 -9.28125 C 10.535156 -8.21875 11.0625 -6.90625 11.0625 -5.34375 C 11.0625 -3.78125 10.546875 -2.46875 9.515625 -1.40625 C 8.492188 -0.34375 7.21875 0.1875 5.6875 0.1875 C 4.125 0.1875 2.832031 -0.335938 1.8125 -1.390625 C 0.800781 -2.453125 0.296875 -3.769531 0.296875 -5.34375 Z M 2.921875 -5.34375 C 2.921875 -4.78125 3.007812 -4.269531 3.1875 -3.8125 C 3.363281 -3.351562 3.664062 -2.960938 4.09375 -2.640625 C 4.519531 -2.316406 5.050781 -2.15625 5.6875 -2.15625 C 6.59375 -2.15625 7.273438 -2.46875 7.734375 -3.09375 C 8.203125 -3.71875 8.4375 -4.46875 8.4375 -5.34375 C 8.4375 -6.21875 8.195312 -6.96875 7.71875 -7.59375 C 7.25 -8.21875 6.570312 -8.53125 5.6875 -8.53125 C 4.800781 -8.53125 4.117188 -8.21875 3.640625 -7.59375 C 3.160156 -6.96875 2.921875 -6.21875 2.921875 -5.34375 Z M 2.921875 -5.34375 "/></g></g></g><g fill="#a6a6a6" fill-opacity="1"><g transform="translate(222.098047, 64.184405)"><g><path d="M 3.21875 -6.625 L 3.21875 0 L 0.78125 0 L 0.78125 -10.6875 L 3.21875 -10.6875 L 7.46875 -4.046875 L 7.484375 -4.046875 L 7.484375 -10.6875 L 9.921875 -10.6875 L 9.921875 0 L 7.484375 0 L 3.234375 -6.625 Z M 3.21875 -6.625 "/></g></g></g><g fill="#a6a6a6" fill-opacity="1"><g transform="translate(241.558914, 64.184405)"><g><path d="M 4.71875 -10.875 C 5.289062 -10.875 5.851562 -10.789062 6.40625 -10.625 C 6.957031 -10.457031 7.367188 -10.289062 7.640625 -10.125 L 8.03125 -9.875 L 7.046875 -7.921875 C 6.972656 -7.972656 6.863281 -8.039062 6.71875 -8.125 C 6.582031 -8.207031 6.320312 -8.316406 5.9375 -8.453125 C 5.5625 -8.597656 5.210938 -8.671875 4.890625 -8.671875 C 4.484375 -8.671875 4.164062 -8.582031 3.9375 -8.40625 C 3.71875 -8.226562 3.609375 -7.992188 3.609375 -7.703125 C 3.609375 -7.554688 3.660156 -7.421875 3.765625 -7.296875 C 3.867188 -7.171875 4.046875 -7.035156 4.296875 -6.890625 C 4.546875 -6.753906 4.765625 -6.640625 4.953125 -6.546875 C 5.148438 -6.460938 5.445312 -6.335938 5.84375 -6.171875 C 6.53125 -5.867188 7.117188 -5.460938 7.609375 -4.953125 C 8.097656 -4.453125 8.34375 -3.882812 8.34375 -3.25 C 8.34375 -2.632812 8.234375 -2.097656 8.015625 -1.640625 C 7.796875 -1.179688 7.492188 -0.820312 7.109375 -0.5625 C 6.722656 -0.3125 6.296875 -0.125 5.828125 0 C 5.359375 0.125 4.851562 0.1875 4.3125 0.1875 C 3.84375 0.1875 3.382812 0.140625 2.9375 0.046875 C 2.488281 -0.046875 2.113281 -0.160156 1.8125 -0.296875 C 1.507812 -0.441406 1.238281 -0.582031 1 -0.71875 C 0.757812 -0.863281 0.582031 -0.984375 0.46875 -1.078125 L 0.296875 -1.21875 L 1.515625 -3.265625 C 1.617188 -3.179688 1.757812 -3.070312 1.9375 -2.9375 C 2.125 -2.800781 2.445312 -2.617188 2.90625 -2.390625 C 3.363281 -2.171875 3.769531 -2.0625 4.125 -2.0625 C 5.15625 -2.0625 5.671875 -2.410156 5.671875 -3.109375 C 5.671875 -3.253906 5.632812 -3.390625 5.5625 -3.515625 C 5.488281 -3.640625 5.359375 -3.765625 5.171875 -3.890625 C 4.984375 -4.015625 4.816406 -4.113281 4.671875 -4.1875 C 4.535156 -4.257812 4.304688 -4.367188 3.984375 -4.515625 C 3.660156 -4.671875 3.421875 -4.789062 3.265625 -4.875 C 2.617188 -5.1875 2.117188 -5.582031 1.765625 -6.0625 C 1.410156 -6.539062 1.234375 -7.054688 1.234375 -7.609375 C 1.234375 -8.566406 1.585938 -9.347656 2.296875 -9.953125 C 3.003906 -10.566406 3.8125 -10.875 4.71875 -10.875 Z M 4.71875 -10.875 "/></g></g></g><g fill="#a6a6a6" fill-opacity="1"><g transform="translate(259.026213, 64.184405)"><g><path d="M 0.296875 -5.34375 C 0.296875 -6.894531 0.820312 -8.203125 1.875 -9.265625 C 2.925781 -10.335938 4.195312 -10.875 5.6875 -10.875 C 7.175781 -10.875 8.441406 -10.34375 9.484375 -9.28125 C 10.535156 -8.21875 11.0625 -6.90625 11.0625 -5.34375 C 11.0625 -3.78125 10.546875 -2.46875 9.515625 -1.40625 C 8.492188 -0.34375 7.21875 0.1875 5.6875 0.1875 C 4.125 0.1875 2.832031 -0.335938 1.8125 -1.390625 C 0.800781 -2.453125 0.296875 -3.769531 0.296875 -5.34375 Z M 2.921875 -5.34375 C 2.921875 -4.78125 3.007812 -4.269531 3.1875 -3.8125 C 3.363281 -3.351562 3.664062 -2.960938 4.09375 -2.640625 C 4.519531 -2.316406 5.050781 -2.15625 5.6875 -2.15625 C 6.59375 -2.15625 7.273438 -2.46875 7.734375 -3.09375 C 8.203125 -3.71875 8.4375 -4.46875 8.4375 -5.34375 C 8.4375 -6.21875 8.195312 -6.96875 7.71875 -7.59375 C 7.25 -8.21875 6.570312 -8.53125 5.6875 -8.53125 C 4.800781 -8.53125 4.117188 -8.21875 3.640625 -7.59375 C 3.160156 -6.96875 2.921875 -6.21875 2.921875 -5.34375 Z M 2.921875 -5.34375 "/></g></g></g><g fill="#a6a6a6" fill-opacity="1"><g transform="translate(279.147272, 64.184405)"><g><path d="M 3.21875 -10.6875 L 3.21875 -2.140625 L 6.890625 -2.140625 L 6.890625 0 L 0.78125 0 L 0.78125 -10.6875 Z M 3.21875 -10.6875 "/></g></g></g><g fill="#a6a6a6" fill-opacity="1"><g transform="translate(295.229444, 64.184405)"><g><path d="M 3.21875 -10.6875 L 3.21875 0 L 0.78125 0 L 0.78125 -10.6875 Z M 3.21875 -10.6875 "/></g></g></g><g fill="#a6a6a6" fill-opacity="1"><g transform="translate(307.984726, 64.184405)"><g><path d="M 3.21875 -6.625 L 3.21875 0 L 0.78125 0 L 0.78125 -10.6875 L 3.21875 -10.6875 L 7.46875 -4.046875 L 7.484375 -4.046875 L 7.484375 -10.6875 L 9.921875 -10.6875 L 9.921875 0 L 7.484375 0 L 3.234375 -6.625 Z M 3.21875 -6.625 "/></g></g></g><g fill="#a6a6a6" fill-opacity="1"><g transform="translate(327.445593, 64.184405)"><g><path d="M 10.4375 -5.984375 L 10.4375 -3.671875 C 10.164062 -2.398438 9.5625 -1.4375 8.625 -0.78125 C 7.695312 -0.132812 6.65625 0.1875 5.5 0.1875 C 4.0625 0.1875 2.832031 -0.347656 1.8125 -1.421875 C 0.800781 -2.503906 0.296875 -3.8125 0.296875 -5.34375 C 0.296875 -6.894531 0.789062 -8.203125 1.78125 -9.265625 C 2.78125 -10.335938 4.019531 -10.875 5.5 -10.875 C 7.238281 -10.875 8.613281 -10.265625 9.625 -9.046875 L 8.03125 -7.3125 C 7.457031 -8.21875 6.660156 -8.671875 5.640625 -8.671875 C 4.890625 -8.671875 4.25 -8.34375 3.71875 -7.6875 C 3.1875 -7.039062 2.921875 -6.257812 2.921875 -5.34375 C 2.921875 -4.4375 3.1875 -3.660156 3.71875 -3.015625 C 4.25 -2.367188 4.890625 -2.046875 5.640625 -2.046875 C 6.265625 -2.046875 6.804688 -2.234375 7.265625 -2.609375 C 7.734375 -2.984375 7.96875 -3.484375 7.96875 -4.109375 L 5.5 -4.109375 L 5.5 -5.984375 Z M 10.4375 -5.984375 "/></g></g></g></svg>