<svg xmlns="http://www.w3.org/2000/svg" xmlns:xlink="http://www.w3.org/1999/xlink" width="500" zoomAndPan="magnify" viewBox="0 0 375 374.999991" height="500" preserveAspectRatio="xMidYMid meet" version="1.0"><defs><g/><clipPath id="0fabd6d814"><path d="M 101.046875 94.417969 L 354.3125 94.417969 L 354.3125 338.839844 L 101.046875 338.839844 Z M 101.046875 94.417969 " clip-rule="nonzero"/></clipPath></defs><g clip-path="url(#0fabd6d814)"><path fill="#5271ff" d="M 354.6875 216.722656 C 354.695312 216.296875 354.605469 215.898438 354.410156 215.519531 C 354.21875 215.140625 353.945312 214.832031 353.597656 214.59375 L 184.382812 95.011719 C 183.988281 94.738281 183.546875 94.589844 183.066406 94.5625 C 182.585938 94.535156 182.132812 94.636719 181.707031 94.863281 C 181.265625 95.070312 180.914062 95.378906 180.652344 95.789062 C 180.394531 96.203125 180.265625 96.652344 180.273438 97.140625 L 180.273438 148.066406 L 105.175781 95.011719 C 104.769531 94.742188 104.320312 94.589844 103.832031 94.5625 C 103.34375 94.539062 102.882812 94.636719 102.449219 94.863281 C 102.027344 95.085938 101.6875 95.398438 101.441406 95.808594 C 101.191406 96.21875 101.066406 96.664062 101.0625 97.140625 L 101.0625 336.300781 C 101.082031 336.777344 101.210938 337.214844 101.460938 337.621094 C 101.707031 338.027344 102.035156 338.347656 102.449219 338.582031 C 102.84375 338.769531 103.253906 338.867188 103.6875 338.878906 C 104.238281 338.875 104.734375 338.707031 105.175781 338.382812 L 180.273438 285.328125 L 180.273438 336.300781 C 180.277344 336.785156 180.410156 337.234375 180.667969 337.644531 C 180.925781 338.054688 181.273438 338.367188 181.707031 338.582031 C 182.078125 338.78125 182.476562 338.878906 182.898438 338.878906 C 183.441406 338.855469 183.9375 338.691406 184.382812 338.382812 L 353.597656 218.851562 C 353.941406 218.605469 354.207031 218.292969 354.398438 217.917969 C 354.59375 217.542969 354.6875 217.144531 354.6875 216.722656 Z M 185.523438 331.25 L 185.523438 281.613281 L 274.390625 218.851562 C 274.726562 218.601562 274.988281 218.285156 275.179688 217.914062 C 275.371094 217.539062 275.472656 217.140625 275.480469 216.722656 C 275.476562 216.300781 275.378906 215.902344 275.1875 215.527344 C 274.996094 215.152344 274.730469 214.839844 274.390625 214.59375 L 185.523438 151.78125 L 185.523438 102.195312 L 347.554688 216.722656 Z M 185.523438 331.25 " fill-opacity="1" fill-rule="nonzero"/></g><g fill="#000000" fill-opacity="1"><g transform="translate(12.659655, 338.674663)"><g><path d="M 192.375 -295.5625 L 192.375 -236.4375 L 88.84375 -236.4375 L 88.84375 -177.6875 L 184.5 -177.6875 L 184.5 -118.578125 L 88.84375 -118.578125 L 88.84375 0 L 21.5 0 L 21.5 -295.5625 Z M 192.375 -295.5625 "/></g></g></g></svg>